<?xml version="1.0" standalone="no"?><!DOCTYPE svg PUBLIC "-//W3C//DTD SVG 1.1//EN" "http://www.w3.org/Graphics/SVG/1.1/DTD/svg11.dtd"><svg t="1561537663533" class="icon" viewBox="0 0 1024 1024" version="1.1" xmlns="http://www.w3.org/2000/svg" p-id="17991" xmlns:xlink="http://www.w3.org/1999/xlink" width="100" height="100"><defs><style type="text/css"></style></defs><path d="M527.056 0c-42.013 0-82.583 6.491-121.711 19.654-38.948 12.983-74.11 31.375-105.484 55.176-31.374 23.621-58.962 51.21-82.583 82.584-23.621 31.194-41.833 66.716-54.996 106.024-12.982 39.308-19.654 79.698-19.654 120.99 0 39.85 13.884 89.616 41.833 149.66s58.782 115.401 92.32 166.25c33.719 50.667 72.486 104.581 116.302 161.02 43.997 56.618 74.65 94.844 92.32 115.04 17.491 20.194 31.375 36.242 41.293 47.602 5.229-6.13 12.621-14.245 21.817-24.703 9.196-10.278 27.228-31.735 53.914-64.192a3541.131 3541.131 0 0 0 76.273-96.107c23.981-31.735 50.668-69.42 80.24-112.876 29.39-43.636 54.634-84.386 76.272-122.072a786.611 786.611 0 0 0 53.914-116.302c14.605-39.85 21.817-74.109 21.817-103.14 0-69.6-17.13-133.792-51.57-192.574C824.935 133.07 778.054 86.37 719.27 52.11 660.668 17.13 596.477 0 527.056 0z m0 544.727c-25.965 0-50.668-5.23-74.47-15.327-23.62-10.278-44.176-23.981-61.306-41.292-17.31-17.13-30.653-37.685-40.57-61.306-9.918-23.621-14.786-48.685-14.966-74.47 0-34.44 8.474-66.355 25.243-95.746s40.21-52.832 69.962-69.962 61.848-25.965 96.107-25.965c52.832 0 97.91 18.753 135.416 56.258 37.505 37.505 56.257 82.764 56.257 135.776s-18.752 98.451-56.257 135.776c-37.506 37.325-82.584 56.258-135.416 56.258z" fill="#ff6600" p-id="17992"></path></svg>